<mxfile host="Electron" modified="2024-04-11T07:47:03.379Z" agent="Mozilla/5.0 (Macintosh; Intel Mac OS X 10_15_7) AppleWebKit/537.36 (KHTML, like Gecko) draw.io/21.4.0 Chrome/112.0.5615.204 Electron/24.5.1 Safari/537.36" etag="GenPLb8rJRwWJNy_OIra" version="21.4.0" type="device">
  <diagram name="Page-1" id="LuhCXFI_Da2tcqLo8g-i">
    <mxGraphModel dx="1242" dy="828" grid="1" gridSize="10" guides="1" tooltips="1" connect="1" arrows="1" fold="1" page="1" pageScale="1" pageWidth="827" pageHeight="1169" math="0" shadow="0">
      <root>
        <mxCell id="0" />
        <mxCell id="1" parent="0" />
        <mxCell id="SOCMeqJxawJhqjbrhEXl-2" value="&lt;div style=&quot;color: rgb(212, 212, 212); background-color: rgb(30, 30, 30); font-family: Menlo, Monaco, &amp;quot;Courier New&amp;quot;, monospace; font-weight: normal; font-size: 30px; line-height: 45px;&quot;&gt;&lt;div&gt;&lt;span style=&quot;color: #569cd6;&quot;&gt;const&lt;/span&gt;&lt;span style=&quot;color: #d4d4d4;&quot;&gt; &lt;/span&gt;&lt;span style=&quot;color: #dcdcaa;&quot;&gt;myFunction4&lt;/span&gt;&lt;span style=&quot;color: #d4d4d4;&quot;&gt; = &lt;/span&gt;&lt;span style=&quot;color: #569cd6;&quot;&gt;function&lt;/span&gt;&lt;span style=&quot;color: #d4d4d4;&quot;&gt; () {&lt;/span&gt;&lt;/div&gt;&lt;div&gt;&lt;span style=&quot;color: #d4d4d4;&quot;&gt;  &lt;/span&gt;&lt;span style=&quot;color: #9cdcfe;&quot;&gt;&lt;span style=&quot;white-space: pre;&quot;&gt;&#x9;&lt;/span&gt;console&lt;/span&gt;&lt;span style=&quot;color: #d4d4d4;&quot;&gt;.&lt;/span&gt;&lt;span style=&quot;color: #dcdcaa;&quot;&gt;log&lt;/span&gt;&lt;span style=&quot;color: #d4d4d4;&quot;&gt;(&lt;/span&gt;&lt;span style=&quot;color: #ce9178;&quot;&gt;`inside myFunction4`&lt;/span&gt;&lt;span style=&quot;color: #d4d4d4;&quot;&gt;)&lt;/span&gt;&lt;/div&gt;&lt;div&gt;&lt;span style=&quot;color: #d4d4d4;&quot;&gt;}&lt;/span&gt;&lt;/div&gt;&lt;/div&gt;" style="text;whiteSpace=wrap;html=1;" vertex="1" parent="1">
          <mxGeometry x="40" y="50" width="770" height="150" as="geometry" />
        </mxCell>
        <mxCell id="SOCMeqJxawJhqjbrhEXl-3" value="&lt;div style=&quot;border-color: var(--border-color); font-family: Menlo, Monaco, &amp;quot;Courier New&amp;quot;, monospace; font-size: 30px; font-style: normal; font-variant-ligatures: normal; font-variant-caps: normal; font-weight: 400; letter-spacing: normal; orphans: 2; text-align: left; text-indent: 0px; text-transform: none; widows: 2; word-spacing: 0px; -webkit-text-stroke-width: 0px; text-decoration-thickness: initial; text-decoration-style: initial; text-decoration-color: initial;&quot;&gt;&lt;span style=&quot;border-color: var(--border-color);&quot;&gt;&lt;font color=&quot;#000000&quot;&gt;{&lt;/font&gt;&lt;/span&gt;&lt;/div&gt;&lt;div style=&quot;border-color: var(--border-color); font-family: Menlo, Monaco, &amp;quot;Courier New&amp;quot;, monospace; font-size: 30px; font-style: normal; font-variant-ligatures: normal; font-variant-caps: normal; font-weight: 400; letter-spacing: normal; orphans: 2; text-align: left; text-indent: 0px; text-transform: none; widows: 2; word-spacing: 0px; -webkit-text-stroke-width: 0px; text-decoration-thickness: initial; text-decoration-style: initial; text-decoration-color: initial;&quot;&gt;&lt;font color=&quot;#000000&quot;&gt;&lt;span style=&quot;border-color: var(--border-color);&quot;&gt;&lt;/span&gt;&lt;span style=&quot;border-color: var(--border-color);&quot;&gt;&lt;span style=&quot;border-color: var(--border-color);&quot;&gt;&lt;span style=&quot;white-space: pre;&quot;&gt;&amp;nbsp;&amp;nbsp;&amp;nbsp;&amp;nbsp;&lt;/span&gt;&lt;/span&gt;console&lt;/span&gt;&lt;span style=&quot;border-color: var(--border-color);&quot;&gt;.&lt;/span&gt;&lt;span style=&quot;border-color: var(--border-color);&quot;&gt;log&lt;/span&gt;&lt;span style=&quot;border-color: var(--border-color);&quot;&gt;(&lt;/span&gt;&lt;span style=&quot;border-color: var(--border-color);&quot;&gt;`inside myFunction4`&lt;/span&gt;&lt;span style=&quot;border-color: var(--border-color);&quot;&gt;)&lt;/span&gt;&lt;/font&gt;&lt;/div&gt;&lt;div style=&quot;border-color: var(--border-color); font-family: Menlo, Monaco, &amp;quot;Courier New&amp;quot;, monospace; font-size: 30px; font-style: normal; font-variant-ligatures: normal; font-variant-caps: normal; font-weight: 400; letter-spacing: normal; orphans: 2; text-align: left; text-indent: 0px; text-transform: none; widows: 2; word-spacing: 0px; -webkit-text-stroke-width: 0px; text-decoration-thickness: initial; text-decoration-style: initial; text-decoration-color: initial;&quot;&gt;&lt;span style=&quot;border-color: var(--border-color);&quot;&gt;&lt;font color=&quot;#000000&quot;&gt;}&lt;/font&gt;&lt;/span&gt;&lt;/div&gt;" style="rounded=0;whiteSpace=wrap;html=1;fillColor=#f5f5f5;fontColor=#333333;strokeColor=#666666;" vertex="1" parent="1">
          <mxGeometry x="290" y="310" width="700" height="170" as="geometry" />
        </mxCell>
        <mxCell id="SOCMeqJxawJhqjbrhEXl-4" value="0x100000" style="text;html=1;strokeColor=none;fillColor=none;align=left;verticalAlign=middle;whiteSpace=wrap;rounded=0;fontStyle=1;fontSize=21;" vertex="1" parent="1">
          <mxGeometry x="290" y="270" width="130" height="30" as="geometry" />
        </mxCell>
        <mxCell id="SOCMeqJxawJhqjbrhEXl-7" style="edgeStyle=orthogonalEdgeStyle;rounded=0;orthogonalLoop=1;jettySize=auto;html=1;entryX=-0.001;entryY=0.176;entryDx=0;entryDy=0;entryPerimeter=0;" edge="1" parent="1" source="SOCMeqJxawJhqjbrhEXl-5" target="SOCMeqJxawJhqjbrhEXl-3">
          <mxGeometry relative="1" as="geometry" />
        </mxCell>
        <mxCell id="SOCMeqJxawJhqjbrhEXl-5" value="0x100000" style="rounded=0;whiteSpace=wrap;html=1;fillColor=#dae8fc;strokeColor=#6c8ebf;fontStyle=1;fontSize=19;" vertex="1" parent="1">
          <mxGeometry x="40" y="310" width="190" height="60" as="geometry" />
        </mxCell>
        <mxCell id="SOCMeqJxawJhqjbrhEXl-6" value="0x200000" style="text;html=1;strokeColor=none;fillColor=none;align=left;verticalAlign=middle;whiteSpace=wrap;rounded=0;fontStyle=1;fontSize=21;" vertex="1" parent="1">
          <mxGeometry x="40" y="270" width="130" height="30" as="geometry" />
        </mxCell>
        <mxCell id="SOCMeqJxawJhqjbrhEXl-8" value="myFunction4&lt;br&gt;reference" style="text;html=1;strokeColor=none;fillColor=none;align=left;verticalAlign=middle;whiteSpace=wrap;rounded=0;fontStyle=1;fontSize=21;" vertex="1" parent="1">
          <mxGeometry x="40" y="380" width="140" height="50" as="geometry" />
        </mxCell>
        <mxCell id="SOCMeqJxawJhqjbrhEXl-9" value="object of type function" style="text;html=1;strokeColor=none;fillColor=none;align=left;verticalAlign=middle;whiteSpace=wrap;rounded=0;fontStyle=1;fontSize=21;" vertex="1" parent="1">
          <mxGeometry x="290" y="490" width="430" height="30" as="geometry" />
        </mxCell>
      </root>
    </mxGraphModel>
  </diagram>
</mxfile>
